{
	"asset":{
		"generator":"Khronos glTF Blender I/O v4.0.43",
		"version":"2.0"
	},
	"scene":0,
	"scenes":[
		{
			"name":"Scene",
			"nodes":[
				0,
				1,
				2,
				3
			]
		}
	],
	"nodes":[
		{
			"mesh":0,
			"name":"alarm_clock_01",
			"translation":[
				0,
				0.129194974899292,
				0
			]
		},
		{
			"mesh":1,
			"name":"houd_hand",
			"translation":[
				0,
				0.129194974899292,
				0
			]
		},
		{
			"mesh":2,
			"name":"minute_hand",
			"translation":[
				0,
				0.129194974899292,
				0
			]
		},
		{
			"mesh":3,
			"name":"second_hand",
			"translation":[
				0,
				0.129194974899292,
				0
			]
		}
	],
	"materials":[
		{
			"doubleSided":true,
			"name":"alarm_clock_01",
			"normalTexture":{
				"index":0
			},
			"pbrMetallicRoughness":{
				"baseColorTexture":{
					"index":1
				},
				"metallicRoughnessTexture":{
					"index":2
				}
			}
		}
	],
	"meshes":[
		{
			"name":"Cylinder.030",
			"primitives":[
				{
					"attributes":{
						"POSITION":0,
						"NORMAL":1,
						"TEXCOORD_0":2
					},
					"indices":3,
					"material":0
				}
			]
		},
		{
			"name":"Plane.012",
			"primitives":[
				{
					"attributes":{
						"POSITION":4,
						"NORMAL":5,
						"TEXCOORD_0":6
					},
					"indices":7,
					"material":0
				}
			]
		},
		{
			"name":"Plane.013",
			"primitives":[
				{
					"attributes":{
						"POSITION":8,
						"NORMAL":9,
						"TEXCOORD_0":10
					},
					"indices":11,
					"material":0
				}
			]
		},
		{
			"name":"Plane.014",
			"primitives":[
				{
					"attributes":{
						"POSITION":12,
						"NORMAL":13,
						"TEXCOORD_0":14
					},
					"indices":15,
					"material":0
				}
			]
		}
	],
	"textures":[
		{
			"sampler":0,
			"source":0
		},
		{
			"sampler":0,
			"source":1
		},
		{
			"sampler":0,
			"source":2
		}
	],
	"images":[
		{
			"mimeType":"image/jpeg",
			"name":"alarm_clock_01_nor_gl_2k",
			"uri":"alarm_clock_01_nor_gl_2k.jpg"
		},
		{
			"mimeType":"image/jpeg",
			"name":"alarm_clock_01_diff_2k",
			"uri":"alarm_clock_01_diff_2k.jpg"
		},
		{
			"mimeType":"image/jpeg",
			"name":"alarm_clock_01_arm_2k",
			"uri":"alarm_clock_01_arm_2k.jpg"
		}
	],
	"accessors":[
		{
			"bufferView":0,
			"componentType":5126,
			"count":6735,
			"max":[
				0.13165056705474854,
				0.21666020154953003,
				0.07595454901456833
			],
			"min":[
				-0.13165056705474854,
				-0.13165056705474854,
				-0.04848538711667061
			],
			"type":"VEC3"
		},
		{
			"bufferView":1,
			"componentType":5126,
			"count":6735,
			"type":"VEC3"
		},
		{
			"bufferView":2,
			"componentType":5126,
			"count":6735,
			"type":"VEC2"
		},
		{
			"bufferView":3,
			"componentType":5123,
			"count":23520,
			"type":"SCALAR"
		},
		{
			"bufferView":4,
			"componentType":5126,
			"count":193,
			"max":[
				0.032219868153333664,
				0.008700374513864517,
				0.0509924553334713
			],
			"min":[
				-0.00870039127767086,
				-0.08069933205842972,
				0.049807436764240265
			],
			"type":"VEC3"
		},
		{
			"bufferView":5,
			"componentType":5126,
			"count":193,
			"type":"VEC3"
		},
		{
			"bufferView":6,
			"componentType":5126,
			"count":193,
			"type":"VEC2"
		},
		{
			"bufferView":7,
			"componentType":5123,
			"count":600,
			"type":"SCALAR"
		},
		{
			"bufferView":8,
			"componentType":5126,
			"count":147,
			"max":[
				0.008641762658953667,
				0.05251381918787956,
				0.04978938400745392
			],
			"min":[
				-0.09310813248157501,
				-0.008641778491437435,
				0.048584721982479095
			],
			"type":"VEC3"
		},
		{
			"bufferView":9,
			"componentType":5126,
			"count":147,
			"type":"VEC3"
		},
		{
			"bufferView":10,
			"componentType":5126,
			"count":147,
			"type":"VEC2"
		},
		{
			"bufferView":11,
			"componentType":5123,
			"count":456,
			"type":"SCALAR"
		},
		{
			"bufferView":12,
			"componentType":5126,
			"count":81,
			"max":[
				0.043165165930986404,
				0.0974866971373558,
				0.048452071845531464
			],
			"min":[
				-0.0067459591664373875,
				-0.006745966151356697,
				0.048135943710803986
			],
			"type":"VEC3"
		},
		{
			"bufferView":13,
			"componentType":5126,
			"count":81,
			"type":"VEC3"
		},
		{
			"bufferView":14,
			"componentType":5126,
			"count":81,
			"type":"VEC2"
		},
		{
			"bufferView":15,
			"componentType":5123,
			"count":219,
			"type":"SCALAR"
		}
	],
	"bufferViews":[
		{
			"buffer":0,
			"byteLength":80820,
			"byteOffset":0,
			"target":34962
		},
		{
			"buffer":0,
			"byteLength":80820,
			"byteOffset":80820,
			"target":34962
		},
		{
			"buffer":0,
			"byteLength":53880,
			"byteOffset":161640,
			"target":34962
		},
		{
			"buffer":0,
			"byteLength":47040,
			"byteOffset":215520,
			"target":34963
		},
		{
			"buffer":0,
			"byteLength":2316,
			"byteOffset":262560,
			"target":34962
		},
		{
			"buffer":0,
			"byteLength":2316,
			"byteOffset":264876,
			"target":34962
		},
		{
			"buffer":0,
			"byteLength":1544,
			"byteOffset":267192,
			"target":34962
		},
		{
			"buffer":0,
			"byteLength":1200,
			"byteOffset":268736,
			"target":34963
		},
		{
			"buffer":0,
			"byteLength":1764,
			"byteOffset":269936,
			"target":34962
		},
		{
			"buffer":0,
			"byteLength":1764,
			"byteOffset":271700,
			"target":34962
		},
		{
			"buffer":0,
			"byteLength":1176,
			"byteOffset":273464,
			"target":34962
		},
		{
			"buffer":0,
			"byteLength":912,
			"byteOffset":274640,
			"target":34963
		},
		{
			"buffer":0,
			"byteLength":972,
			"byteOffset":275552,
			"target":34962
		},
		{
			"buffer":0,
			"byteLength":972,
			"byteOffset":276524,
			"target":34962
		},
		{
			"buffer":0,
			"byteLength":648,
			"byteOffset":277496,
			"target":34962
		},
		{
			"buffer":0,
			"byteLength":438,
			"byteOffset":278144,
			"target":34963
		}
	],
	"samplers":[
		{
			"magFilter":9729,
			"minFilter":9987
		}
	],
	"buffers":[
		{
			"byteLength":278584,
			"uri":"alarm_clock.bin"
		}
	]
}
