{
	"asset":{
		"generator":"Khronos glTF Blender I/O v4.0.43",
		"version":"2.0"
	},
	"scene":0,
	"scenes":[
		{
			"name":"Scene",
			"nodes":[
				0
			]
		}
	],
	"nodes":[
		{
			"mesh":0,
			"name":"sm_cone"
		}
	],
	"materials":[
		{
			"doubleSided":true,
			"name":"Material",
			"normalTexture":{
				"index":0
			},
			"pbrMetallicRoughness":{
				"baseColorTexture":{
					"index":1
				},
				"metallicFactor":0,
				"metallicRoughnessTexture":{
					"index":2
				}
			}
		}
	],
	"meshes":[
		{
			"name":"Aset_plastic__S_tmjjddkhw_LOD1",
			"primitives":[
				{
					"attributes":{
						"POSITION":0,
						"NORMAL":1,
						"TEXCOORD_0":2
					},
					"indices":3,
					"material":0
				}
			]
		}
	],
	"textures":[
		{
			"sampler":0,
			"source":0
		},
		{
			"sampler":0,
			"source":1
		},
		{
			"sampler":0,
			"source":2
		}
	],
	"images":[
		{
			"mimeType":"image/jpeg",
			"name":"tmjjddkhw_2K_Normal_LOD1",
			"uri":"tmjjddkhw_2K_Normal_LOD1.jpg"
		},
		{
			"mimeType":"image/jpeg",
			"name":"tmjjddkhw_2K_Albedo",
			"uri":"tmjjddkhw_2K_Albedo.jpg"
		},
		{
			"mimeType":"image/png",
			"name":"tmjjddkhw_2K_Roughness",
			"uri":"tmjjddkhw_2K_Roughness.png"
		}
	],
	"accessors":[
		{
			"bufferView":0,
			"componentType":5126,
			"count":2774,
			"max":[
				0.09332922846078873,
				0.26998916268348694,
				0.09240306168794632
			],
			"min":[
				-0.0926712155342102,
				0,
				-0.09348053485155106
			],
			"type":"VEC3"
		},
		{
			"bufferView":1,
			"componentType":5126,
			"count":2774,
			"type":"VEC3"
		},
		{
			"bufferView":2,
			"componentType":5126,
			"count":2774,
			"type":"VEC2"
		},
		{
			"bufferView":3,
			"componentType":5123,
			"count":12852,
			"type":"SCALAR"
		}
	],
	"bufferViews":[
		{
			"buffer":0,
			"byteLength":33288,
			"byteOffset":0,
			"target":34962
		},
		{
			"buffer":0,
			"byteLength":33288,
			"byteOffset":33288,
			"target":34962
		},
		{
			"buffer":0,
			"byteLength":22192,
			"byteOffset":66576,
			"target":34962
		},
		{
			"buffer":0,
			"byteLength":25704,
			"byteOffset":88768,
			"target":34963
		}
	],
	"samplers":[
		{
			"magFilter":9729,
			"minFilter":9987
		}
	],
	"buffers":[
		{
			"byteLength":114472,
			"uri":"ConeTestModel.bin"
		}
	]
}
